HIERARCHY
ROOT Hips
{
	OFFSET 0.00000 0.00000 0.00000
	CHANNELS 6 Xposition Yposition Zposition Zrotation Yrotation Xrotation 
	JOINT LHipJoint
	{
		OFFSET 0 0 0
		CHANNELS 3 Zrotation Yrotation Xrotation
		JOINT LeftHip
		{
			OFFSET 1.62964 -1.40469 0.78906
			CHANNELS 3 Zrotation Yrotation Xrotation
			JOINT LeftKnee
			{
				OFFSET 2.29640 -6.30932 0.00000
				CHANNELS 3 Zrotation Yrotation Xrotation
				JOINT LeftAnkle
				{
					OFFSET 2.29451 -6.30412 0.00000
					CHANNELS 3 Zrotation Yrotation Xrotation
					JOINT LeftToe
					{
						OFFSET 0.03611 -0.09921 1.56387
						CHANNELS 3 Zrotation Yrotation Xrotation
						End Site
						{
							OFFSET 0.00000 -0.00000 0.80291
						}
					}
				}
			}
		}
	}
	JOINT RHipJoint
	{
		OFFSET 0 0 0
		CHANNELS 3 Zrotation Yrotation Xrotation
		JOINT RightHip
		{
			OFFSET -1.73712 -1.40469 0.78906
			CHANNELS 3 Zrotation Yrotation Xrotation
			JOINT RightKnee
			{
				OFFSET -2.28137 -6.26801 0.00000
				CHANNELS 3 Zrotation Yrotation Xrotation
				JOINT RightAnkle
				{
					OFFSET -2.28681 -6.28298 0.00000
					CHANNELS 3 Zrotation Yrotation Xrotation
					JOINT RightToe
					{
						OFFSET -0.15927 -0.43759 1.61103
						CHANNELS 3 Zrotation Yrotation Xrotation
						End Site
						{
							OFFSET -0.00000 -0.00000 0.84630
						}
					}
				}
			}
		}
	}
	JOINT lowerback
	{
		OFFSET 0 0 0
		CHANNELS 3 Zrotation Yrotation Xrotation
		JOINT Chest
		{
			OFFSET -0.04227 2.04338 -0.00225
			CHANNELS 3 Zrotation Yrotation Xrotation
			JOINT Chest2
			{
				OFFSET -0.02148 2.04482 -0.04273
				CHANNELS 3 Zrotation Yrotation Xrotation
				JOINT lowerneck
				{
					OFFSET 0 0 0
					CHANNELS 3 Zrotation Yrotation Xrotation
					JOINT Neck
					{
						OFFSET 0.09180 1.44629 0.19359
						CHANNELS 3 Zrotation Yrotation Xrotation
						JOINT Head
						{
							OFFSET 0.00887 1.40645 0.14750
							CHANNELS 3 Zrotation Yrotation Xrotation
							End Site
							{
								OFFSET -0.00669 1.50671 0.03707
							}
						}
					}
				}
				JOINT LeftCollar
				{
					OFFSET 0 0 0
					CHANNELS 3 Zrotation Yrotation Xrotation
					JOINT LeftShoulder
					{
						OFFSET 2.17674 1.86763 -0.06520
CHANNELS 3 Zrotation Xrotation Yrotation
						JOINT LeftElbow
						{
OFFSET 0 -4.657760 0.000000
CHANNELS 3 Zrotation Xrotation Yrotation
							JOINT LeftWrist
							{
OFFSET 0 -3.555390 0.000000
CHANNELS 3 Zrotation Xrotation Yrotation
								JOINT lhand
								{
									OFFSET 0 0 0
CHANNELS 3 Zrotation Xrotation Yrotation
									JOINT LFingers
									{
OFFSET 0 -0.707260 0.000000
CHANNELS 3 Zrotation Xrotation Yrotation
										End Site
										{
OFFSET 0 -0.570220 0.000000
										}
									}
								}
								JOINT LThumb
								{
OFFSET 0 0.000000 0.000000
CHANNELS 3 Zrotation Xrotation Yrotation
									End Site
									{
OFFSET 0 -0.578920 0.578920
									}
								}
							}
						}
					}
				}
				JOINT RightCollar
				{
					OFFSET 0 0 0
					CHANNELS 3 Zrotation Yrotation Xrotation
					JOINT RightShoulder
					{
						OFFSET -2.80694 1.55459 -0.32496
CHANNELS 3 Zrotation Xrotation Yrotation
						JOINT RightElbow
						{
OFFSET 0 -4.719250 -0.000000
CHANNELS 3 Zrotation Xrotation Yrotation
							JOINT RightWrist
							{
OFFSET 0 -3.569900 0.000000
CHANNELS 3 Zrotation Xrotation Yrotation
								JOINT rhand
								{
									OFFSET 0 0 0
CHANNELS 3 Zrotation Xrotation Yrotation
									JOINT RFingers
									{
OFFSET 0 -0.507760 0.000000
CHANNELS 3 Zrotation Xrotation Yrotation
										End Site
										{
OFFSET 0 -0.409370 0.000000
										}
									}
								}
								JOINT RThumb
								{
OFFSET 0 0.000000 0.000000
CHANNELS 3 Zrotation Xrotation Yrotation
									End Site
									{
OFFSET 0 -0.415620 0.415620
									}
								}
							}
						}
					}
				}
			}
		}
	}
}
MOTION
Frames: 11
Frame Time: 0.008333333333333333
-1.053222 17.961578 20.872141 177.885765 -4.028224 -153.775235 0.000000 0.000000 0.000000 -21.917989 -14.688656 -20.951125 0.131238 2.335140 6.432667 0.007033 -5.724317 -4.212480 3.208747 -11.025547 -32.366021 0.000000 0.000000 0.000000 18.572220 11.351216 -21.260071 -0.099992 -2.039329 5.614419 -0.879684 4.986394 -16.750482 -0.683104 5.284344 -14.721258 -7.755280 -0.664859 -28.275575 -0.350809 1.213881 -0.541860 4.260680 -0.168680 14.236000 -1.305117 -1.020098 -3.575032 2.563823 -4.163933 25.356319 0.620762 -2.654768 8.532083 0.000000 0.000000 0.000000 3.440673 -1.481529 -26.858042 9.345638 -15.709502 1.292131 21.351012 1.609483 10.233997 0.000000 0.000000 0.000000 -7.125000 0.000000 0.000000 -4.020651 19.024125 -2.496582 0.000000 0.000000 0.000000 2.520857 2.400963 -2.605041 -9.404574 -15.802834 -1.308148 -20.563954 30.513439 57.401517 0.000000 0.000000 0.000000 7.125000 0.000000 0.000000 87.465059 79.367972 -76.613286
-1.057259 17.962782 20.881934 177.942523 -3.777635 -153.727312 0.000000 0.000000 0.000000 -21.875317 -14.672818 -21.026558 0.128393 2.309595 6.362118 0.014954 -5.521923 -4.305892 3.188435 -10.993972 -32.259626 0.000000 0.000000 0.000000 18.535529 11.548345 -21.393097 -0.102946 -2.068905 5.695977 -0.875398 5.103456 -16.702410 -0.669394 5.232104 -14.571733 -7.701210 -0.656292 -28.205587 -0.360602 1.201976 -0.549868 4.215890 -0.168278 14.197242 -1.317851 -1.157351 -3.417081 2.543405 -4.415066 25.473738 0.594386 -2.794346 8.549637 0.000000 0.000000 0.000000 3.500926 -1.317852 -26.855312 9.392098 -15.783068 1.304705 21.170087 1.545364 10.362260 0.000000 0.000000 0.000000 -7.125000 0.000000 0.000000 -4.152086 18.901702 -2.589952 0.000000 0.000000 0.000000 2.531979 2.353252 -2.639710 -9.382221 -15.767441 -1.302054 -19.056798 29.530031 58.410057 0.000000 0.000000 0.000000 7.125000 0.000000 0.000000 91.602963 78.661840 -80.083280
-1.060221 17.962700 20.889563 178.007306 -3.624680 -153.708104 0.000000 0.000000 0.000000 -21.818733 -14.668201 -21.068198 0.126820 2.295767 6.323833 0.021552 -5.373477 -4.399587 3.144385 -10.925193 -32.027989 0.000000 0.000000 0.000000 18.547340 11.705414 -21.387850 -0.100837 -2.047359 5.636523 -0.868626 5.062893 -16.638559 -0.709379 5.382086 -15.001814 -7.649753 -0.667489 -28.071647 -0.349261 1.153912 -0.585275 4.181167 -0.181942 14.100617 -1.230179 -1.191168 -3.152038 2.459356 -4.500487 25.493674 0.546844 -2.851806 8.506525 0.000000 0.000000 0.000000 3.588630 -1.111269 -27.046393 9.450653 -15.875726 1.320696 20.999614 1.402736 10.395499 0.000000 0.000000 0.000000 -7.125000 0.000000 0.000000 -4.273649 18.879712 -2.668253 0.000000 0.000000 0.000000 2.524072 2.425029 -2.597917 -9.379094 -15.762516 -1.301195 -17.318878 28.390888 59.548383 0.000000 0.000000 0.000000 7.125000 0.000000 0.000000 95.894184 77.825890 -83.640168
-1.061999 17.963626 20.895388 178.012055 -3.481939 -153.736139 0.000000 0.000000 0.000000 -21.836814 -14.663683 -21.028069 0.125096 2.280000 6.280160 0.027014 -5.215895 -4.462841 3.190710 -10.997420 -32.271368 0.000000 0.000000 0.000000 18.506753 11.791861 -21.251701 -0.093387 -1.970727 5.424723 -0.856426 4.992045 -16.521740 -0.747665 5.523158 -15.406917 -7.684907 -0.709803 -27.923813 -0.337483 1.099734 -0.577418 4.192924 -0.204705 14.045560 -1.121710 -1.182051 -2.986963 2.361792 -4.523804 25.571039 0.494287 -2.876902 8.499279 0.000000 0.000000 0.000000 3.649279 -1.041509 -27.087021 9.492718 -15.942176 1.332203 20.785928 1.332346 10.385016 0.000000 0.000000 0.000000 -7.125000 0.000000 0.000000 -4.424843 18.907371 -2.760286 0.000000 0.000000 0.000000 2.523229 2.650119 -1.984441 -9.497354 -15.949497 -1.333511 -18.387185 28.366275 58.619162 0.000000 0.000000 0.000000 7.125000 0.000000 0.000000 92.034847 78.379497 -80.263642
-1.065155 17.966144 20.901267 178.026391 -3.340647 -153.785309 0.000000 0.000000 0.000000 -21.851012 -14.654120 -20.939892 0.121677 2.248704 6.193565 0.032472 -5.053726 -4.527097 3.232137 -11.061653 -32.488190 0.000000 0.000000 0.000000 18.515975 11.669974 -21.192487 -0.087531 -1.908453 5.252671 -0.840303 5.167686 -16.355060 -0.718712 5.416670 -15.101052 -7.675208 -0.742121 -27.791975 -0.349356 1.054933 -0.534085 4.159240 -0.220994 14.039912 -1.045564 -1.262830 -2.847450 2.349299 -4.695922 25.652030 0.462959 -2.967405 8.503965 0.000000 0.000000 0.000000 3.692147 -1.112258 -26.740779 9.488377 -15.935305 1.331007 20.332050 1.528807 10.335239 0.000000 0.000000 0.000000 -7.125000 0.000000 0.000000 -4.745453 18.994739 -2.952558 0.000000 0.000000 0.000000 2.561998 2.812012 -1.242978 -9.600619 -16.112437 -1.362049 -21.002475 29.087164 56.846867 0.000000 0.000000 0.000000 7.125000 0.000000 0.000000 84.701766 79.596269 -74.088974
-1.070602 17.966539 20.906344 178.057866 -3.250434 -153.772895 0.000000 0.000000 0.000000 -21.844646 -14.677156 -20.932440 0.120102 2.234549 6.154343 0.034664 -4.975158 -4.546176 3.155094 -10.941450 -32.083348 0.000000 0.000000 0.000000 18.578697 11.366874 -21.317371 -0.085341 -1.884645 5.187048 -0.820378 5.558548 -16.147911 -0.684963 5.291362 -14.741505 -7.586714 -0.762478 -27.735519 -0.370696 1.002970 -0.511235 4.069259 -0.237149 14.049133 -1.108095 -1.438388 -2.795532 2.458876 -5.039304 25.838587 0.478405 -3.142707 8.571362 0.000000 0.000000 0.000000 3.717740 -1.179924 -26.318859 9.430486 -15.843791 1.315163 20.192251 1.768531 10.461550 0.000000 0.000000 0.000000 -7.125000 0.000000 0.000000 -4.846739 18.871800 -3.029307 0.000000 0.000000 0.000000 2.583168 2.933985 -0.959296 -9.665841 -16.215144 -1.380170 -20.753320 28.697083 57.366207 0.000000 0.000000 0.000000 7.125000 0.000000 0.000000 87.311354 79.428086 -76.540505
-1.077735 17.964247 20.911607 178.104284 -3.219787 -153.696496 0.000000 0.000000 0.000000 -21.806319 -14.773599 -21.017174 0.120469 2.237975 6.163732 0.036206 -4.880994 -4.540084 3.152178 -10.937379 -32.069026 0.000000 0.000000 0.000000 18.647328 11.078929 -21.541402 -0.085134 -1.882400 5.180797 -0.801724 5.886650 -15.960067 -0.682616 5.282582 -14.716349 -7.457425 -0.777588 -27.701579 -0.374422 0.936809 -0.531211 3.970077 -0.257145 14.021511 -1.085292 -1.438855 -2.673520 2.444027 -5.076170 25.896264 0.467095 -3.171088 8.568941 0.000000 0.000000 0.000000 3.747308 -1.186762 -26.091598 9.402359 -15.799409 1.307503 20.086804 1.838470 10.477216 0.000000 0.000000 0.000000 -7.125000 0.000000 0.000000 -4.921706 18.863273 -3.077419 0.000000 0.000000 0.000000 2.559817 3.037842 -1.242681 -9.668037 -16.218674 -1.380797 -20.058879 29.105585 58.773843 0.000000 0.000000 0.000000 7.125000 0.000000 0.000000 94.124757 78.895072 -82.925952
-1.080282 17.963610 20.916667 178.102379 -3.210499 -153.679000 0.000000 0.000000 0.000000 -21.817977 -14.788436 -21.044992 0.120149 2.234512 6.154118 0.035969 -4.829593 -4.508088 3.299507 -11.164389 -32.836773 0.000000 0.000000 0.000000 18.602653 11.235874 -21.514047 -0.084839 -1.878412 5.169899 -0.806964 5.696514 -16.011741 -0.710916 5.388711 -15.020529 -7.459569 -0.829252 -27.617653 -0.362792 0.864573 -0.522255 3.957551 -0.287894 14.000579 -1.062663 -1.462868 -2.679849 2.395118 -5.162231 26.105879 0.434997 -3.227369 8.643120 0.000000 0.000000 0.000000 3.770317 -1.229815 -25.911704 9.396263 -15.789739 1.305828 19.908741 1.925579 10.370755 0.000000 0.000000 0.000000 -7.125000 0.000000 0.000000 -5.046177 18.988921 -3.141755 0.000000 0.000000 0.000000 2.505070 3.113975 -1.089024 -9.672553 -16.225770 -1.382064 -19.978400 29.103128 58.631513 0.000000 0.000000 0.000000 7.125000 0.000000 0.000000 93.388664 78.914995 -82.176131
-1.074365 17.966226 20.920085 178.036391 -3.218578 -153.822149 0.000000 0.000000 0.000000 -21.906297 -14.597296 -20.900440 0.117696 2.211661 6.091089 0.028796 -4.952621 -4.365147 3.272419 -11.123390 -32.697267 0.000000 0.000000 0.000000 18.501688 11.615457 -21.082605 -0.078696 -1.809111 4.978414 -0.818496 5.183234 -16.135930 -0.740604 5.497696 -15.333849 -7.652936 -0.925314 -27.396409 -0.330641 0.794174 -0.452230 4.073595 -0.327844 13.980471 -1.036589 -1.554274 -2.733682 2.311773 -5.325882 26.293164 0.383648 -3.318681 8.719193 0.000000 0.000000 0.000000 3.714368 -1.399428 -25.544323 9.331343 -15.686927 1.288216 20.119504 2.196685 10.457253 0.000000 0.000000 0.000000 -7.125000 0.000000 0.000000 -4.898203 18.881838 -3.060627 0.000000 0.000000 0.000000 2.428799 3.086405 -1.348190 -9.598783 -16.109557 -1.361568 -17.534302 26.865336 58.260689 0.000000 0.000000 0.000000 7.125000 0.000000 0.000000 90.078930 78.173548 -78.003181
-1.073183 17.967386 20.924524 178.064359 -3.298127 -153.919568 0.000000 0.000000 0.000000 -21.863420 -14.529468 -20.831574 0.117883 2.213448 6.095920 0.024086 -5.030427 -4.272458 3.209735 -11.027056 -32.371148 0.000000 0.000000 0.000000 18.547162 11.744023 -20.833426 -0.073972 -1.755117 4.829264 -0.814254 4.945681 -16.102447 -0.753009 5.542417 -15.462319 -7.663250 -1.016338 -27.192059 -0.276316 0.667601 -0.404924 4.093887 -0.381640 13.953462 -0.964886 -1.658276 -2.869656 2.211559 -5.540741 26.619925 0.309076 -3.436260 8.859003 0.000000 0.000000 0.000000 3.645456 -1.530547 -25.273635 9.285516 -15.614366 1.275882 20.770745 2.370406 10.699201 0.000000 0.000000 0.000000 -7.125000 0.000000 0.000000 -4.442533 18.575026 -2.804052 0.000000 0.000000 0.000000 2.337238 2.977553 -2.867531 -9.391640 -15.782316 -1.304677 -15.040010 24.985955 55.466230 0.000000 0.000000 0.000000 7.125000 0.000000 0.000000 76.415333 77.367308 -63.543129
-1.075893 17.967641 20.929506 178.145871 -3.391502 -153.917496 0.000000 0.000000 0.000000 -21.739061 -14.591013 -20.889664 0.120908 2.241505 6.173595 0.023921 -5.035024 -4.270945 3.134520 -10.909540 -31.975678 0.000000 0.000000 0.000000 18.623100 11.887944 -20.800367 -0.074062 -1.755893 4.831545 -0.818861 4.781513 -16.157408 -0.738674 5.490275 -15.312391 -7.564822 -1.085698 -27.107841 -0.252881 0.538569 -0.476137 4.074184 -0.438781 14.046648 -0.873876 -1.641881 -2.903142 2.180431 -5.618289 26.957331 0.267320 -3.487370 8.982717 0.000000 0.000000 0.000000 3.662415 -1.559965 -25.296686 9.297181 -15.632775 1.278983 21.546988 2.412180 10.875775 0.000000 0.000000 0.000000 -7.125000 0.000000 0.000000 -3.899366 18.324061 -2.481249 0.000000 0.000000 0.000000 2.321845 3.181909 -1.714897 -9.597108 -16.106862 -1.361086 -16.560314 25.867286 57.010513 0.000000 0.000000 0.000000 7.125000 0.000000 0.000000 83.740597 77.982871 -71.389230
